<svg width="661" height="166" viewBox="0 0 661 166" fill="none" xmlns="http://www.w3.org/2000/svg">
<path d="M606.061 0.95874C451.305 1.17507 160.738 1.67752 3.04796 1.92176C157.336 3.83385 452.96 2.6196 605.977 3.45003C640.025 3.91759 664.447 28.8933 654.68 53.2131C648.895 68.5447 629.408 80.1218 608.108 80.8755C606.36 80.9593 604.603 80.9453 602.752 80.9453H597.266C432.286 80.8476 225.097 80.736 60.0603 80.6383C56.3779 80.6173 52.3496 80.6243 48.7139 81.057C37.2554 82.2503 26.3576 86.1652 17.9273 92.0829C-18.6074 118.14 4.25364 163.5 54.4525 165.384C221.602 165.719 430.136 166.082 597.266 165.921H602.752C611.276 165.733 611 165.921 608.472 160.269C602.556 160.081 592.154 160.213 586.312 160.171C425.547 159.99 220.826 160.45 60.0696 160.667C38.8442 161.546 18.7123 152.614 10.2726 137.938C-3.9524 113.618 19.3572 86.0535 54.7142 84.9998C221.76 84.595 430.248 84.3089 597.276 83.967C600.491 83.9251 605.192 84.0367 608.36 83.8693C640.044 82.5573 664.279 60.7568 660.111 37.2535C657.026 17.1068 633.193 1.11227 606.061 0.95874Z" fill="url(#paint0_radial_322_27363)"/>
<defs>
<radialGradient id="paint0_radial_322_27363" cx="0" cy="0" r="1" gradientUnits="userSpaceOnUse" gradientTransform="translate(330.289 83.4597) rotate(159.748) scale(352.052 384.306)">
<stop stop-color="#D4DDEC"/>
<stop offset="0.959216" stop-color="#F9FAFD"/>
</radialGradient>
</defs>
</svg>
