<svg width="496" height="280" viewBox="0 0 496 280" fill="none" xmlns="http://www.w3.org/2000/svg">
<path d="M2.28204 1.10063C120.346 0.821482 337.896 0.247242 453.763 0C474.078 0.175462 491.922 18.4554 494.231 41.4808C497.352 68.3425 479.207 93.2581 455.485 94.7575C453.113 94.949 449.593 94.8213 447.186 94.8692C322.131 95.26 166.034 95.587 40.965 96.0496C14.4929 97.2539 -2.9592 128.757 7.69122 156.552C14.0101 173.325 29.083 183.533 44.9747 182.529C165.334 182.281 318.611 181.755 438.977 181.962C443.351 182.01 451.139 181.859 455.569 182.074C473.294 183.087 489.479 197.81 494.252 217.294C501.277 244.02 486.414 272.868 462.461 278.793C457.745 280.261 450.46 279.982 445.527 279.974C435.409 279.91 406.837 279.886 396.278 279.822C275.82 278.626 121.144 279.83 2.27504 276.648C144.222 275.22 311.585 274.367 453.679 273.936C472.006 273.681 488.08 257.124 490.081 236.332C492.09 218.921 483.664 200.872 469.823 193.12C464.12 189.786 457.668 188.319 451.286 188.534H447.179C322.047 188.718 165.915 188.303 40.7691 187.92C3.18474 185.767 -13.9315 133.925 13.4223 104.145C19.7342 97.3815 27.8934 92.9072 36.4726 91.5434C39.1946 91.0489 42.2106 91.0409 44.9677 91.0649C168.532 91.1765 323.656 91.3041 447.179 91.4158H451.286C452.672 91.4158 453.987 91.4317 455.296 91.336C471.243 90.4747 485.834 77.2432 490.165 59.7209C497.478 31.9261 479.193 3.38163 453.7 2.84727C339.135 1.89818 117.799 3.28593 2.28204 1.10063Z" fill="url(#paint0_radial_322_26714)"/>
<defs>
<radialGradient id="paint0_radial_322_26714" cx="0" cy="0" r="1" gradientUnits="userSpaceOnUse" gradientTransform="translate(248 140) rotate(140.177) scale(322.904 533.873)">
<stop stop-color="#D4DDEC"/>
<stop offset="0.959216" stop-color="#F9FAFD"/>
</radialGradient>
</defs>
</svg>
