<svg width="804" height="378" viewBox="0 0 804 378" fill="none" xmlns="http://www.w3.org/2000/svg">
<path d="M4.6717 1.55082C195.744 1.17496 547.82 0.401754 735.336 0.0688477C768.212 0.305104 797.09 24.9187 800.827 55.922C805.878 92.0906 776.513 125.639 738.122 127.658C734.283 127.916 728.586 127.744 724.691 127.808C522.305 128.334 269.683 128.775 67.2752 129.398C24.4335 131.019 -3.81057 173.438 13.4258 210.863C23.6521 233.447 48.0457 247.193 73.7643 245.84C268.551 245.507 516.609 244.798 711.407 245.077C718.485 245.142 731.089 244.938 738.258 245.228C766.943 246.591 793.138 266.415 800.861 292.651C812.231 328.637 788.177 367.479 749.413 375.458C741.78 377.434 729.991 377.059 722.007 377.048C705.631 376.962 659.392 376.93 642.303 376.844C447.358 375.233 197.035 376.854 4.66038 372.57C234.384 370.647 505.239 369.498 735.2 368.918C764.86 368.575 790.873 346.281 794.112 318.284C797.362 294.841 783.727 270.539 761.326 260.101C752.097 255.612 741.655 253.636 731.327 253.926H724.679C522.169 254.173 269.491 253.615 66.9581 253.099C6.1326 250.2 -21.5678 180.397 22.7008 140.298C32.9157 131.191 46.1204 125.166 60.0046 123.33C64.41 122.664 69.291 122.654 73.7529 122.686C273.726 122.836 524.774 123.008 724.679 123.158H731.327C733.569 123.158 735.698 123.18 737.816 123.051C763.625 121.891 787.237 104.075 794.248 80.4818C806.082 43.0567 776.49 4.62215 735.234 3.90264C549.825 2.62471 191.621 4.49328 4.6717 1.55082Z" fill="url(#paint0_radial_253_2010)"/>
<defs>
<radialGradient id="paint0_radial_253_2010" cx="0" cy="0" r="1" gradientUnits="userSpaceOnUse" gradientTransform="translate(402.335 188.576) rotate(145.249) scale(488.483 769.023)">
<stop stop-color="#D4DDEC"/>
<stop offset="0.959216" stop-color="#F9FAFD"/>
</radialGradient>
</defs>
</svg>
