<svg width="972" height="392" viewBox="0 0 972 392" fill="none" xmlns="http://www.w3.org/2000/svg">
<path d="M5.43871 1.78121C236.407 1.39069 661.999 0.587342 888.669 0.241455C928.41 0.486923 963.318 26.0602 967.836 58.2723C973.941 95.8512 938.444 130.708 892.037 132.805C887.396 133.073 880.51 132.895 875.801 132.962C631.157 133.508 325.786 133.966 81.1141 134.613C29.3268 136.298 -4.8147 180.37 16.0207 219.255C28.3823 242.719 57.8694 257.001 88.9581 255.595C324.417 255.249 624.271 254.513 859.744 254.803C868.299 254.87 883.536 254.658 892.201 254.959C926.877 256.376 958.54 276.973 967.877 304.231C981.621 341.62 952.544 381.978 905.685 390.268C896.459 392.321 882.208 391.93 872.557 391.919C852.762 391.83 796.868 391.796 776.21 391.707C540.56 390.033 237.968 391.718 5.42502 387.266C283.116 385.269 610.527 384.075 888.505 383.473C924.358 383.116 955.803 359.952 959.718 330.865C963.647 306.507 947.164 281.258 920.087 270.412C908.93 265.749 896.308 263.696 883.823 263.997H875.788C630.993 264.253 325.553 263.673 80.7308 263.138C7.20465 260.125 -26.2798 187.6 27.2323 145.938C39.5802 136.476 55.5421 130.217 72.3254 128.309C77.6506 127.617 83.5508 127.606 88.9444 127.639C330.673 127.796 634.141 127.974 875.788 128.13H883.823C886.534 128.13 889.107 128.153 891.667 128.019C922.866 126.814 951.408 108.303 959.882 83.7898C974.188 44.9055 938.417 4.97229 888.546 4.22473C664.422 2.89697 231.424 4.8384 5.43871 1.78121Z" fill="url(#paint0_radial_265_735)"/>
<defs>
<radialGradient id="paint0_radial_265_735" cx="0" cy="0" r="1" gradientUnits="userSpaceOnUse" gradientTransform="translate(486.136 196.099) rotate(149.193) scale(564.867 835.239)">
<stop stop-color="#D4DDEC"/>
<stop offset="0.959216" stop-color="#F9FAFD"/>
</radialGradient>
</defs>
</svg>
